<svg class='Calendar' width="24" height="24" viewBox="0 0 24 24" fill="none" xmlns="http://www.w3.org/2000/svg">
<g clip-path="url(#clip0_250_1846)">
<path d="M20.6572 4H18.5755V5.33333H20.4971V20H2.56246V5.33333H4.48403V4H2.40233C2.2526 4.0026 2.10483 4.03588 1.96746 4.09794C1.83009 4.15999 1.70581 4.24961 1.60172 4.36166C1.49762 4.47371 1.41576 4.60601 1.3608 4.751C1.30585 4.89599 1.27887 5.05083 1.28141 5.20667V20.1267C1.27887 20.2825 1.30585 20.4373 1.3608 20.5823C1.41576 20.7273 1.49762 20.8596 1.60172 20.9717C1.70581 21.0837 1.83009 21.1733 1.96746 21.2354C2.10483 21.2974 2.2526 21.3307 2.40233 21.3333H20.6572C20.807 21.3307 20.9547 21.2974 21.0921 21.2354C21.2295 21.1733 21.3538 21.0837 21.4578 20.9717C21.5619 20.8596 21.6438 20.7273 21.6988 20.5823C21.7537 20.4373 21.7807 20.2825 21.7781 20.1267V5.20667C21.7807 5.05083 21.7537 4.89599 21.6988 4.751C21.6438 4.60601 21.5619 4.47371 21.4578 4.36166C21.3538 4.24961 21.2295 4.15999 21.0921 4.09794C20.9547 4.03588 20.807 4.0026 20.6572 4Z" fill="#272727"/>
<path d="M5.125 9.3335H6.40605V10.6668H5.125V9.3335Z" fill="#272727"/>
<path d="M8.9668 9.3335H10.2478V10.6668H8.9668V9.3335Z" fill="#272727"/>
<path d="M12.8105 9.3335H14.0916V10.6668H12.8105V9.3335Z" fill="#272727"/>
<path d="M16.6543 9.3335H17.9353V10.6668H16.6543V9.3335Z" fill="#272727"/>
<path d="M5.125 12.6665H6.40605V13.9998H5.125V12.6665Z" fill="#272727"/>
<path d="M8.9668 12.6665H10.2478V13.9998H8.9668V12.6665Z" fill="#272727"/>
<path d="M12.8105 12.6665H14.0916V13.9998H12.8105V12.6665Z" fill="#272727"/>
<path d="M16.6543 12.6665H17.9353V13.9998H16.6543V12.6665Z" fill="#272727"/>
<path d="M5.125 16H6.40605V17.3333H5.125V16Z" fill="#272727"/>
<path d="M8.9668 16H10.2478V17.3333H8.9668V16Z" fill="#272727"/>
<path d="M12.8105 16H14.0916V17.3333H12.8105V16Z" fill="#272727"/>
<path d="M16.6543 16H17.9353V17.3333H16.6543V16Z" fill="#272727"/>
<path d="M6.40615 6.66683C6.57603 6.66683 6.73894 6.59659 6.85907 6.47157C6.97919 6.34654 7.04667 6.17697 7.04667 6.00016V2.00016C7.04667 1.82335 6.97919 1.65378 6.85907 1.52876C6.73894 1.40373 6.57603 1.3335 6.40615 1.3335C6.23627 1.3335 6.07335 1.40373 5.95323 1.52876C5.83311 1.65378 5.76562 1.82335 5.76562 2.00016V6.00016C5.76562 6.17697 5.83311 6.34654 5.95323 6.47157C6.07335 6.59659 6.23627 6.66683 6.40615 6.66683Z" fill="#272727"/>
<path d="M16.6542 6.66683C16.8241 6.66683 16.987 6.59659 17.1071 6.47157C17.2272 6.34654 17.2947 6.17697 17.2947 6.00016V2.00016C17.2947 1.82335 17.2272 1.65378 17.1071 1.52876C16.987 1.40373 16.8241 1.3335 16.6542 1.3335C16.4843 1.3335 16.3214 1.40373 16.2013 1.52876C16.0812 1.65378 16.0137 1.82335 16.0137 2.00016V6.00016C16.0137 6.17697 16.0812 6.34654 16.2013 6.47157C16.3214 6.59659 16.4843 6.66683 16.6542 6.66683Z" fill="#272727"/>
<path d="M8.32617 4H14.7314V5.33333H8.32617V4Z" fill="#272727"/>
</g>
<defs>
<clipPath id="clip0_250_1846">
<rect width="23.0588" height="24" fill="white"/>
</clipPath>
</defs>
</svg>
