<svg width="22" height="17" viewBox="0 0 22 17" fill="none" xmlns="http://www.w3.org/2000/svg">
<path d="M4.40078 4.1002C4.40078 3.38411 4.68524 2.69736 5.19159 2.19101C5.69794 1.68466 6.3847 1.4002 7.10078 1.4002C7.81687 1.4002 8.50362 1.68466 9.00997 2.19101C9.51632 2.69736 9.80078 3.38411 9.80078 4.1002C9.80078 4.81628 9.51632 5.50304 9.00997 6.00938C8.50362 6.51573 7.81687 6.8002 7.10078 6.8002C6.3847 6.8002 5.69794 6.51573 5.19159 6.00938C4.68524 5.50304 4.40078 4.81628 4.40078 4.1002ZM7.10078 0.200195C6.06644 0.200195 5.07446 0.611087 4.34306 1.34248C3.61167 2.07387 3.20078 3.06585 3.20078 4.1002C3.20078 5.13454 3.61167 6.12652 4.34306 6.85791C5.07446 7.5893 6.06644 8.0002 7.10078 8.0002C8.13513 8.0002 9.1271 7.5893 9.8585 6.85791C10.5899 6.12652 11.0008 5.13454 11.0008 4.1002C11.0008 3.06585 10.5899 2.07387 9.8585 1.34248C9.1271 0.611087 8.13513 0.200195 7.10078 0.200195ZM13.9252 14.1742C14.5708 14.4382 15.3832 14.6002 16.4008 14.6002C18.658 14.6002 19.906 13.7986 20.5636 12.8794C20.9067 12.397 21.1218 11.8355 21.1888 11.2474C21.1948 11.1928 21.1988 11.1379 21.2008 11.083V11.0002C21.2008 10.7638 21.1542 10.5298 21.0638 10.3114C20.9733 10.093 20.8407 9.89455 20.6736 9.7274C20.5064 9.56026 20.308 9.42767 20.0896 9.33721C19.8712 9.24675 19.6372 9.2002 19.4008 9.2002H13.8448C14.1328 9.5482 14.3488 9.955 14.4748 10.4002H19.4008C19.5599 10.4002 19.7125 10.4634 19.825 10.5759C19.9376 10.6885 20.0008 10.8411 20.0008 11.0002V11.065L19.9948 11.125C19.9488 11.5055 19.8086 11.8685 19.5868 12.181C19.1944 12.7318 18.3424 13.4002 16.4008 13.4002C15.5224 13.4002 14.8672 13.2634 14.3764 13.063C14.278 13.399 14.1352 13.7782 13.9252 14.1742ZM0.800781 11.6002C0.800781 10.9637 1.05364 10.3532 1.50372 9.90314C1.95381 9.45305 2.56426 9.2002 3.20078 9.2002H11.0008C11.6373 9.2002 12.2477 9.45305 12.6978 9.90314C13.1479 10.3532 13.4008 10.9637 13.4008 11.6002V11.701C13.4008 11.713 13.4008 11.7286 13.3984 11.749C13.3838 11.9866 13.3497 12.2226 13.2964 12.4546C13.1944 12.8962 12.9916 13.4866 12.5824 14.0794C11.7412 15.2962 10.1164 16.4002 7.10078 16.4002C4.08518 16.4002 2.46038 15.2962 1.61918 14.0794C1.17617 13.4341 0.899941 12.6891 0.815181 11.911C0.808011 11.8412 0.803208 11.7711 0.800781 11.701V11.6002ZM2.00078 11.6722V11.6938L2.00918 11.7934C2.0742 12.3686 2.2794 12.9191 2.60678 13.3966C3.19118 14.2414 4.41638 15.2002 7.10078 15.2002C9.78518 15.2002 11.0104 14.2414 11.5948 13.3966C11.9222 12.9192 12.1275 12.3687 12.1924 11.7934C12.1963 11.7603 12.1987 11.7271 12.1996 11.6938L12.2008 11.6734V11.6002C12.2008 11.2819 12.0744 10.9767 11.8493 10.7517C11.6243 10.5266 11.319 10.4002 11.0008 10.4002H3.20078C2.88252 10.4002 2.5773 10.5266 2.35225 10.7517C2.12721 10.9767 2.00078 11.2819 2.00078 11.6002V11.6722ZM14.6008 5.0002C14.6008 4.52281 14.7904 4.06497 15.128 3.7274C15.4656 3.38984 15.9234 3.2002 16.4008 3.2002C16.8782 3.2002 17.336 3.38984 17.6736 3.7274C18.0111 4.06497 18.2008 4.52281 18.2008 5.0002C18.2008 5.47759 18.0111 5.93542 17.6736 6.27299C17.336 6.61055 16.8782 6.8002 16.4008 6.8002C15.9234 6.8002 15.4656 6.61055 15.128 6.27299C14.7904 5.93542 14.6008 5.47759 14.6008 5.0002ZM16.4008 2.0002C15.6051 2.0002 14.8421 2.31627 14.2795 2.87888C13.7169 3.44148 13.4008 4.20455 13.4008 5.0002C13.4008 5.79585 13.7169 6.55891 14.2795 7.12152C14.8421 7.68412 15.6051 8.0002 16.4008 8.0002C17.1964 8.0002 17.9595 7.68412 18.5221 7.12152C19.0847 6.55891 19.4008 5.79585 19.4008 5.0002C19.4008 4.20455 19.0847 3.44148 18.5221 2.87888C17.9595 2.31627 17.1964 2.0002 16.4008 2.0002Z" fill="black"/>
</svg>
