<svg width="64" height="64" viewBox="0 0 64 64" fill="none" xmlns="http://www.w3.org/2000/svg">
<rect width="64" height="64" rx="8" fill="#1A7BD3"/>
<path d="M42.2026 21.2887C41.7539 18.8504 39.6298 17 37.0668 17C34.5012 17 32.3764 18.8543 31.9304 21.2959C21.2894 22.3066 12.9674 31.2969 13.0001 42.2339C13.0073 44.5227 14.9019 46.3646 17.1856 46.3646H37.0668C37.6449 46.3646 38.1132 45.8953 38.1132 45.3159C38.1132 44.1577 37.176 43.2184 36.0204 43.2184H30.8219L33.1632 40.0505C34.7419 37.6758 33.84 34.2641 30.9586 33.0633C29.3962 32.4125 27.5873 32.7586 26.2342 33.7765L24.0917 35.3883C23.63 35.7363 22.974 35.6445 22.6261 35.1792C22.2795 34.7151 22.3724 34.0577 22.8347 33.7103L25.1093 32.0002C27.5186 30.1872 30.8827 30.1898 33.2926 32.0002C34.0035 32.5344 36.2925 34.5604 35.9609 38.1097L43.7126 46.3646H49.6233C50.2015 46.3646 50.6697 45.8953 50.6697 45.3159C50.6697 44.1577 49.7326 43.2184 48.577 43.2184H45.0696L38.6266 36.357L48.7267 30.6775C49.3161 30.3462 49.8068 29.8635 50.1483 29.2791C50.4898 28.6946 50.6698 28.0296 50.6697 27.3523C50.6697 25.9496 49.9033 24.6682 48.6764 23.9944C46.0238 22.538 42.2026 21.2887 42.2026 21.2887ZM37.0668 23.8168C36.1996 23.8168 35.4972 23.1122 35.4972 22.2437C35.4972 21.3745 36.1996 20.6706 37.0668 20.6706C37.9333 20.6706 38.6364 21.3745 38.6364 22.2437C38.6364 23.1122 37.9333 23.8168 37.0668 23.8168Z" fill="white"/>
</svg>
